<?xml version="1.0" encoding="utf-8"?>
<!-- Generator: Adobe Illustrator 17.0.0, SVG Export Plug-In . SVG Version: 6.00 Build 0)  -->
<!DOCTYPE svg PUBLIC "-//W3C//DTD SVG 1.1//EN" "http://www.w3.org/Graphics/SVG/1.1/DTD/svg11.dtd">
<svg version="1.1" id="Layer_1" xmlns="http://www.w3.org/2000/svg" xmlns:xlink="http://www.w3.org/1999/xlink" x="0px" y="0px"
	 width="50px" height="50px" viewBox="0 0 50 50" enable-background="new 0 0 50 50" xml:space="preserve">
<g display="none">
	<path display="inline" fill="#FFFFFF" d="M43.503,48.201h-6.126L24.905,27.793L12.21,48.201H6.497l15.425-24.248L7.544,1.799h5.967
		l11.521,18.376L36.648,1.799h5.745L28.015,23.762L43.503,48.201z"/>
</g>
<g>
	<path fill="#FFFFFF" d="M46.344,24.984c0,7.426-1.878,13.266-5.634,17.519s-8.977,6.38-15.662,6.38
		c-6.835,0-12.108-2.09-15.822-6.269c-3.713-4.179-5.57-10.077-5.57-17.694c0-7.554,1.862-13.41,5.585-17.567
		c3.725-4.158,9.014-6.237,15.869-6.237c6.666,0,11.871,2.116,15.615,6.348C44.472,11.697,46.344,17.536,46.344,24.984z
		 M9.368,24.984c0,6.284,1.339,11.05,4.016,14.298c2.676,3.248,6.564,4.871,11.664,4.871c5.141,0,9.023-1.618,11.647-4.855
		c2.623-3.237,3.936-8.009,3.936-14.314c0-6.242-1.307-10.976-3.92-14.203s-6.479-4.84-11.601-4.84
		c-5.141,0-9.051,1.624-11.727,4.872C10.707,14.061,9.368,18.785,9.368,24.984z"/>
</g>
</svg>
