<?xml version="1.0"?>
<svg width="50" height="50" xmlns="http://www.w3.org/2000/svg" xmlns:svg="http://www.w3.org/2000/svg" stroke="null" style="vector-effect: non-scaling-stroke;">
 <g stroke="null">
  <title stroke="null">Layer 2</title>
  <rect id="svg_9" height="50.456909" width="50.356796" y="-0.243882" x="-0.043656" stroke-linecap="null" stroke-linejoin="null" stroke-dasharray="null" stroke-width="5" stroke="null" fill="#3a7282"/>
 </g>
 <g stroke="null">
  <title stroke="null">Layer 1</title>
  <g stroke="null" id="svg_1" display="none">
   <path stroke="null" id="svg_2" d="m43.502998,48.201l-6.125999,0l-12.471998,-20.408001l-12.695001,20.408001l-5.713,0l15.425001,-24.248001l-14.378001,-22.153999l5.967,0l11.521,18.375999l11.615999,-18.375999l5.745003,0l-14.378002,21.962999l15.487999,24.439001z" fill="#FFFFFF"/>
  </g>
  <g stroke="null" id="svg_3">
   <path stroke="null" id="svg_4" d="m46.344002,24.983999c0,7.426001 -1.878002,13.266001 -5.634003,17.518999s-8.976999,6.380001 -15.661999,6.380001c-6.835001,0 -12.108,-2.09 -15.822001,-6.269001c-3.713,-4.178997 -5.57,-10.077 -5.57,-17.693998c0,-7.554001 1.862,-13.41 5.585,-17.567c3.724999,-4.158 9.013999,-6.237 15.869,-6.237c6.665998,0 11.870998,2.116 15.614998,6.348c3.747002,4.233 5.619003,10.071999 5.619003,17.519999zm-36.976002,0c0,6.284 1.339,11.050001 4.016,14.298002c2.676,3.247997 6.564,4.870998 11.664001,4.870998c5.140999,0 9.022999,-1.618 11.646999,-4.855c2.623001,-3.237 3.936001,-8.009001 3.936001,-14.314001c0,-6.241999 -1.306999,-10.975999 -3.920002,-14.202999s-6.478998,-4.84 -11.600998,-4.84c-5.141001,0 -9.051001,1.624 -11.727,4.872c-2.676001,3.248 -4.015,7.972 -4.015,14.171z" fill="#FFFFFF"/>
  </g>
 </g>
</svg>